<?xml version="1.0" standalone="no"?>
<!DOCTYPE svg PUBLIC "-//W3C//DTD SVG 20010904//EN"
 "http://www.w3.org/TR/2001/REC-SVG-20010904/DTD/svg10.dtd">
<svg version="1.0" xmlns="http://www.w3.org/2000/svg"
 width="160.000000pt" height="160.000000pt" viewBox="0 0 160.000000 160.000000"
 preserveAspectRatio="xMidYMid meet">
<metadata>
Created by potrace 1.14, written by Peter Selinger 2001-2017
</metadata>
<g transform="translate(0.000000,160.000000) scale(0.100000,-0.100000)"
fill="#000000" stroke="none">
<path d="M989 1564 c-103 -31 -202 -127 -235 -228 -55 -164 38 -398 275 -688
31 -38 58 -68 62 -68 3 0 33 33 66 72 144 174 251 365 278 494 56 269 -189
498 -446 418z m162 -247 c118 -79 15 -257 -111 -192 -40 20 -60 53 -60 95 1
44 18 76 56 101 38 25 74 24 115 -4z"/>
<path d="M612 1185 c-194 -44 -379 -234 -427 -437 -47 -200 18 -412 170 -557
117 -110 248 -164 405 -164 163 0 294 55 411 172 129 129 189 285 176 458 -8
104 -17 115 -52 61 -15 -24 -36 -52 -46 -64 -12 -13 -22 -46 -28 -92 -9 -74
-45 -164 -86 -218 l-25 -32 -34 34 c-30 30 -40 34 -85 34 l-51 0 0 104 c0 141
9 136 -227 136 l-183 0 0 55 0 55 70 0 c94 0 110 17 110 112 0 66 1 68 25 68
31 0 31 0 1 58 -28 56 -46 108 -60 178 l-11 51 -53 -12z m-22 -801 c0 -61 23
-97 75 -115 34 -12 35 -15 35 -62 l0 -50 -40 7 c-104 16 -257 132 -308 232
-30 59 -52 153 -52 222 0 107 -1 108 151 -44 l139 -139 0 -51z"/>
</g>
</svg>
