<?xml version="1.0" standalone="no"?>
<!DOCTYPE svg PUBLIC "-//W3C//DTD SVG 20010904//EN"
 "http://www.w3.org/TR/2001/REC-SVG-20010904/DTD/svg10.dtd">
<svg version="1.0" xmlns="http://www.w3.org/2000/svg"
 width="160.000000pt" height="160.000000pt" viewBox="0 0 160.000000 160.000000"
 preserveAspectRatio="xMidYMid meet">
<metadata>
Created by potrace 1.14, written by Peter Selinger 2001-2017
</metadata>
<g transform="translate(0.000000,160.000000) scale(0.100000,-0.100000)"
fill="#000000" stroke="none">
<path d="M1020 1568 c-19 -5 -39 -10 -45 -11 -35 -10 -102 -54 -136 -90 -85
-90 -117 -213 -85 -336 32 -125 162 -348 287 -491 l52 -59 54 67 c30 37 60 74
68 83 80 99 182 287 210 387 55 195 -50 388 -243 447 -37 11 -124 13 -162 3z
m135 -248 c64 -40 71 -128 14 -181 -48 -45 -112 -44 -158 2 -35 35 -45 80 -27
123 30 71 106 96 171 56z"/>
<path d="M573 1171 c-136 -47 -263 -158 -330 -287 -52 -101 -67 -167 -66 -279
1 -158 60 -295 175 -407 121 -119 256 -169 433 -164 248 8 449 161 531 401 22
66 27 98 27 181 0 141 -7 149 -65 69 -38 -52 -48 -75 -52 -118 -9 -84 -49
-183 -99 -241 -25 -28 -25 -28 -32 -7 -10 32 -63 61 -112 61 -27 0 -43 5 -44
13 0 6 -1 54 -2 105 -2 95 -8 110 -47 113 -8 1 -90 2 -182 3 -92 1 -169 3
-171 6 -6 5 -10 53 -8 86 1 20 8 22 71 26 90 5 103 17 106 100 1 35 2 66 3 71
1 4 12 7 25 7 l25 0 -31 67 c-18 37 -39 99 -48 138 -19 81 -26 84 -107 56z
m-120 -598 c136 -136 137 -136 137 -182 0 -66 35 -113 93 -125 26 -5 27 -8 27
-62 l0 -56 -27 7 c-16 4 -39 9 -52 11 -54 11 -139 62 -196 119 -90 91 -133
189 -136 315 -2 89 0 110 9 110 5 0 70 -61 145 -137z"/>
</g>
</svg>
