<?xml version="1.0" standalone="no"?>
<!DOCTYPE svg PUBLIC "-//W3C//DTD SVG 20010904//EN"
 "http://www.w3.org/TR/2001/REC-SVG-20010904/DTD/svg10.dtd">
<svg version="1.0" xmlns="http://www.w3.org/2000/svg"
 width="700.000000pt" height="700.000000pt" viewBox="0 0 700.000000 700.000000"
 preserveAspectRatio="xMidYMid meet">
<metadata>
Created by potrace 1.14, written by Peter Selinger 2001-2017
</metadata>
<g transform="translate(0.000000,700.000000) scale(0.100000,-0.100000)"
fill="#000000" stroke="none">
<path d="M1540 6480 c-129 -34 -214 -83 -316 -185 -75 -74 -98 -105 -132 -175
-78 -161 -72 61 -72 -2616 0 -2340 0 -2403 19 -2476 63 -244 251 -434 501
-505 62 -17 134 -18 1415 -18 1469 0 1418 -2 1644 56 607 156 1103 622 1294
1214 222 690 28 1437 -501 1925 -153 141 -313 247 -503 332 -104 46 -322 118
-360 118 -10 0 -19 5 -19 10 0 6 21 51 46 101 240 479 205 1077 -89 1528 -230
352 -572 587 -995 683 -95 21 -112 22 -977 25 -846 2 -883 2 -955 -17z"/>
</g>
</svg>
